<svg width="16" height="15" viewBox="0 0 16 15" fill="none" xmlns="http://www.w3.org/2000/svg">
<path d="M2.6875 8.21875C2.3125 8.625 1.65625 8.625 1.28125 8.21875C0.875 7.84375 0.875 7.1875 1.28125 6.8125L7.28125 0.8125C7.65625 0.40625 8.3125 0.40625 8.6875 0.8125L14.6875 6.8125C15.0938 7.1875 15.0938 7.84375 14.6875 8.21875C14.5 8.40625 14.25 8.5 14 8.5C13.7188 8.5 13.4688 8.40625 13.2812 8.21875L8 2.9375L2.6875 8.21875ZM8.6875 6.8125L14.6875 12.8125C15.0938 13.1875 15.0938 13.8438 14.6875 14.2188C14.5 14.4062 14.25 14.5 14 14.5C13.7188 14.5 13.4688 14.4062 13.2812 14.2188L8 8.9375L2.6875 14.2188C2.3125 14.625 1.65625 14.625 1.28125 14.2188C0.875 13.8438 0.875 13.1875 1.28125 12.8125L7.28125 6.8125C7.65625 6.40625 8.3125 6.40625 8.6875 6.8125Z" fill="#64A905"/>
</svg>
