<svg width="28" height="29" viewBox="0 0 28 29" fill="none" xmlns="http://www.w3.org/2000/svg">
<g filter="url(#filter0_d_2898_3892)">
<path d="M17.8594 21.9336C18.2656 21.832 18.5703 22.3398 18.2656 22.6445C16.4883 24.9297 13.7461 26.25 10.6992 26.25C5.31641 26.25 1 21.8828 1 16.5C1 10.4062 6.48438 5.83594 12.5273 6.95312C12.9336 7.00391 13.0352 7.5625 12.6289 7.76562C10.2422 9.13672 8.76953 11.6758 8.76953 14.418C8.76953 19.1914 13.1367 22.8477 17.8594 21.9336ZM15.625 3.5L14.1016 2.89062C14 2.83984 13.9492 2.78906 13.9492 2.6875C13.9492 2.63672 14 2.58594 14.1016 2.53516L15.625 1.875L16.2344 0.351562C16.2852 0.300781 16.3359 0.25 16.4375 0.25C16.4883 0.25 16.5391 0.300781 16.5898 0.351562L17.1992 1.875L18.7227 2.48438C18.8242 2.53516 18.875 2.58594 18.875 2.6875C18.875 2.78906 18.8242 2.83984 18.7227 2.83984L17.1992 3.5L16.5898 4.97266C16.5391 5.07422 16.4883 5.125 16.3867 5.125C16.3359 5.125 16.2852 5.07422 16.2344 4.97266L15.625 3.5ZM26.7461 11.2695C26.8984 11.3711 27 11.4727 27 11.625C27 11.7773 26.8984 11.9297 26.7461 12.0312L23.75 13.25L22.4805 16.2969C22.3789 16.4492 22.2773 16.5 22.125 16.5C21.9727 16.5 21.8203 16.4492 21.7188 16.2969L20.5 13.25L17.4531 12.0312C17.3008 11.9297 17.25 11.7773 17.25 11.625C17.25 11.4727 17.3008 11.3711 17.4531 11.2695L20.5 10L21.7188 6.95312C21.8203 6.80078 21.9727 6.75 22.125 6.75C22.2773 6.75 22.3789 6.85156 22.4805 7.00391L23.75 10L26.7461 11.2695Z" fill="white"/>
</g>
<defs>
<filter id="filter0_d_2898_3892" x="0" y="0.25" width="28" height="28" filterUnits="userSpaceOnUse" color-interpolation-filters="sRGB">
<feFlood flood-opacity="0" result="BackgroundImageFix"/>
<feColorMatrix in="SourceAlpha" type="matrix" values="0 0 0 0 0 0 0 0 0 0 0 0 0 0 0 0 0 0 127 0" result="hardAlpha"/>
<feOffset dy="1"/>
<feGaussianBlur stdDeviation="0.5"/>
<feComposite in2="hardAlpha" operator="out"/>
<feColorMatrix type="matrix" values="0 0 0 0 0 0 0 0 0 0 0 0 0 0 0 0 0 0 0.35 0"/>
<feBlend mode="normal" in2="BackgroundImageFix" result="effect1_dropShadow_2898_3892"/>
<feBlend mode="normal" in="SourceGraphic" in2="effect1_dropShadow_2898_3892" result="shape"/>
</filter>
</defs>
</svg>
