<svg width="34" height="33" viewBox="0 0 34 33" fill="none" xmlns="http://www.w3.org/2000/svg">
<g filter="url(#filter0_d_2898_3639)">
<path d="M8.16215 8.14157L5.79999 5.77941C5.33783 5.31725 5.33783 4.54698 5.79999 4.03347C6.3135 3.57131 7.08377 3.57131 7.54593 4.03347L9.90809 6.39563C10.3702 6.85779 10.3702 7.62806 9.90809 8.14157C9.65133 8.34697 9.34323 8.50103 9.03512 8.50103C8.72701 8.50103 8.36755 8.34697 8.16215 8.14157ZM16.9998 5.93347C16.2809 5.93347 15.7674 5.41995 15.7674 4.70104V1.41456C15.7674 0.746992 16.2809 0.182129 16.9998 0.182129C17.6674 0.182129 18.2323 0.746992 18.2323 1.41456V4.70104C18.2323 5.41995 17.6674 5.93347 16.9998 5.93347ZM7.75134 15.182C7.75134 15.9009 7.18647 16.4144 6.51891 16.4144H3.23243C2.51351 16.4144 2 15.9009 2 15.182C2 14.5144 2.51351 13.9495 3.23243 13.9495H6.51891C7.18647 13.9495 7.75134 14.5144 7.75134 15.182ZM24.9132 8.50103C24.6051 8.50103 24.297 8.34697 24.0402 8.14157C23.578 7.62806 23.578 6.85779 24.0402 6.39563L26.4024 4.03347C26.8645 3.57131 27.6348 3.57131 28.1483 4.03347C28.6105 4.54698 28.6105 5.31725 28.1483 5.77941L25.7862 8.14157C25.5807 8.34697 25.2213 8.50103 24.9132 8.50103ZM16.9998 24.4304C17.6674 24.4304 18.2323 24.9953 18.2323 25.6629V28.9493C18.2323 29.6683 17.6674 30.1818 16.9998 30.1818C16.2809 30.1818 15.7674 29.6683 15.7674 28.9493V25.6629C15.7674 24.9953 16.2809 24.4304 16.9998 24.4304ZM8.16215 22.2737C8.62431 21.8115 9.39458 21.8115 9.90809 22.2737C10.3702 22.7872 10.3702 23.5575 9.90809 24.0196L7.54593 26.3818C7.34053 26.5872 7.03242 26.7412 6.67296 26.7412C6.36485 26.7412 6.05675 26.5872 5.79999 26.3818C5.33783 25.8683 5.33783 25.098 5.79999 24.6358L8.16215 22.2737ZM30.7672 13.9495C31.4348 13.9495 31.9996 14.5144 31.9996 15.182C31.9996 15.9009 31.4348 16.4144 30.7672 16.4144H27.4807C26.7618 16.4144 26.2483 15.9009 26.2483 15.182C26.2483 14.5144 26.7618 13.9495 27.4807 13.9495H30.7672ZM25.7862 22.2737L28.1483 24.6358C28.6105 25.098 28.6105 25.8683 28.1483 26.3818C27.8916 26.5872 27.5834 26.7412 27.2753 26.7412C26.9159 26.7412 26.6078 26.5872 26.4024 26.3818L24.0402 24.0196C23.578 23.5575 23.578 22.7872 24.0402 22.2737C24.5537 21.8115 25.324 21.8115 25.7862 22.2737Z" fill="#FFF700"/>
</g>
<g filter="url(#filter1_d_2898_3639)">
<path d="M24.4153 15.0132C24.4153 10.9743 21.0385 7.59753 16.9996 7.59753C12.8945 7.59753 9.58398 10.9743 9.58398 15.0132C9.58398 19.1183 12.8945 22.4288 16.9996 22.4288C21.0385 22.4288 24.4153 19.1183 24.4153 15.0132Z" fill="#FFF700"/>
</g>
<defs>
<filter id="filter0_d_2898_3639" x="0.909091" y="0.182129" width="32.1818" height="32.1815" filterUnits="userSpaceOnUse" color-interpolation-filters="sRGB">
<feFlood flood-opacity="0" result="BackgroundImageFix"/>
<feColorMatrix in="SourceAlpha" type="matrix" values="0 0 0 0 0 0 0 0 0 0 0 0 0 0 0 0 0 0 127 0" result="hardAlpha"/>
<feOffset dy="1.09091"/>
<feGaussianBlur stdDeviation="0.545455"/>
<feComposite in2="hardAlpha" operator="out"/>
<feColorMatrix type="matrix" values="0 0 0 0 0 0 0 0 0 0 0 0 0 0 0 0 0 0 0.35 0"/>
<feBlend mode="normal" in2="BackgroundImageFix" result="effect1_dropShadow_2898_3639"/>
<feBlend mode="normal" in="SourceGraphic" in2="effect1_dropShadow_2898_3639" result="shape"/>
</filter>
<filter id="filter1_d_2898_3639" x="8.49308" y="7.59753" width="17.0129" height="17.0131" filterUnits="userSpaceOnUse" color-interpolation-filters="sRGB">
<feFlood flood-opacity="0" result="BackgroundImageFix"/>
<feColorMatrix in="SourceAlpha" type="matrix" values="0 0 0 0 0 0 0 0 0 0 0 0 0 0 0 0 0 0 127 0" result="hardAlpha"/>
<feOffset dy="1.09091"/>
<feGaussianBlur stdDeviation="0.545455"/>
<feComposite in2="hardAlpha" operator="out"/>
<feColorMatrix type="matrix" values="0 0 0 0 0 0 0 0 0 0 0 0 0 0 0 0 0 0 0.35 0"/>
<feBlend mode="normal" in2="BackgroundImageFix" result="effect1_dropShadow_2898_3639"/>
<feBlend mode="normal" in="SourceGraphic" in2="effect1_dropShadow_2898_3639" result="shape"/>
</filter>
</defs>
</svg>
