<svg width="28" height="32" viewBox="0 0 28 32" fill="none" xmlns="http://www.w3.org/2000/svg">
<path fill-rule="evenodd" clip-rule="evenodd" d="M28 18C28 15.8125 26.1875 14 24 14H23V9C23 4.0625 18.9375 0 14 0C9 0 5 4.0625 5 9V14H4C1.75 14 0 15.75 0 18V28C0 30.1875 1.75 32 4 32H24C26.1875 32 28 30.1875 28 28V18ZM9 14V9C9 6.25 11.1875 4 14 4C16.75 4 19 6.25 19 9V14H9ZM17.3634 21.1818C17.3634 22.4591 16.6109 23.5606 15.5249 24.067L16.9998 28H10.9998L12.5354 23.9052C11.6149 23.3476 10.9998 22.3366 10.9998 21.1818C10.9998 19.4246 12.4244 18 14.1816 18C15.9389 18 17.3634 19.4246 17.3634 21.1818Z" fill="white"/>
</svg>
