<svg width="30" height="30" viewBox="0 0 30 30" fill="none" xmlns="http://www.w3.org/2000/svg">
<circle cx="15" cy="15" r="15" fill="white"/>
<path d="M14.9999 27.0732C8.30309 27.0732 2.92676 21.6969 2.92676 15C2.92676 8.35037 8.30309 2.92688 14.9999 2.92688C21.6496 2.92688 27.0731 8.35037 27.0731 15C27.0731 21.6969 21.6496 27.0732 14.9999 27.0732ZM20.3291 12.7835H20.2819C20.7535 12.359 20.7535 11.6516 20.2819 11.18C19.8575 10.7556 19.1501 10.7556 18.7256 11.18L13.4908 16.462L11.2742 14.2455C10.8026 13.7739 10.0952 13.7739 9.67076 14.2455C9.19915 14.6699 9.19915 15.3773 9.67076 15.8018L12.689 18.8201C13.1135 19.2917 13.8209 19.2917 14.2925 18.8201L20.3291 12.7835Z" fill="#29DB50"/>
</svg>
