<svg width="15" height="15" viewBox="0 0 15 15" fill="none" xmlns="http://www.w3.org/2000/svg">
<path d="M8.65625 7.85938L10.1055 8.98047C10.4062 9.19922 10.4609 9.60938 10.2422 9.91016C10.1055 10.0742 9.91406 10.1562 9.72266 10.1562C9.58594 10.1562 9.44922 10.1289 9.33984 10.0469L7.58984 8.73438C7.42578 8.59766 7.34375 8.40625 7.34375 8.1875V4.90625C7.34375 4.55078 7.61719 4.25 8 4.25C8.35547 4.25 8.65625 4.55078 8.65625 4.90625V7.85938ZM7.97266 0.75C11.8555 0.75 14.9453 3.89453 14.9453 7.75C14.9453 11.6328 11.8281 14.75 7.97266 14.75C4.08984 14.75 0.972656 11.6328 0.972656 7.75C0.972656 3.89453 4.08984 0.75 7.97266 0.75ZM8 13.4375C11.1172 13.4375 13.6875 10.8945 13.6875 7.75C13.6875 4.63281 11.1172 2.0625 8 2.0625C4.85547 2.0625 2.3125 4.63281 2.3125 7.75C2.3125 10.8945 4.85547 13.4375 8 13.4375Z" fill="black"/>
</svg>
