<svg width="19" height="19" viewBox="0 0 19 19" fill="none" xmlns="http://www.w3.org/2000/svg">
<path d="M18.1484 2.74609C18.3594 2.95703 18.5 3.23828 18.5 3.55469V11.5C18.5 12.7656 17.4805 13.75 16.25 13.75H9.5C8.23438 13.75 7.25 12.7656 7.21484 11.5V2.5C7.21484 1.26953 8.19922 0.25 9.46484 0.25H15.1953C15.5117 0.25 15.793 0.390625 16.0039 0.601562L18.1484 2.74609ZM16.8125 11.5H16.7773V4.75H15.125C14.4922 4.75 14 4.25781 14 3.625L13.9648 1.97266H9.46484C9.14844 1.97266 8.90234 2.21875 8.90234 2.53516V11.5C8.90234 11.8164 9.14844 12.0625 9.46484 12.0625H16.25C16.5312 12.0625 16.8125 11.8164 16.8125 11.5ZM10.0625 16V14.875H11.75V16C11.75 17.2656 10.7305 18.25 9.5 18.25H2.75C1.48438 18.25 0.5 17.2656 0.5 16L0.464844 7C0.464844 5.76953 1.48438 4.75 2.71484 4.75H6.125V6.47266H2.71484C2.43359 6.47266 2.15234 6.71875 2.15234 7.03516V16C2.15234 16.3164 2.39844 16.5625 2.71484 16.5625H9.5C9.78125 16.5625 10.0625 16.3164 10.0625 16Z" fill="white"/>
</svg>
