<svg width="32" height="32" viewBox="0 0 32 32" fill="none" xmlns="http://www.w3.org/2000/svg">
<path d="M7.42857 5.14286C8 5.14286 8.57143 5.71429 8.57143 6.28571V7.42857C8.57143 8.07143 8 8.57143 7.42857 8.57143H6.28571C5.64286 8.57143 5.14286 8.07143 5.14286 7.42857V6.28571C5.14286 5.71429 5.64286 5.14286 6.28571 5.14286H7.42857ZM0 3.42857C0 1.57143 1.5 0 3.42857 0H10.2857C12.1429 0 13.7143 1.57143 13.7143 3.42857V10.2857C13.7143 12.2143 12.1429 13.7143 10.2857 13.7143H3.42857C1.5 13.7143 0 12.2143 0 10.2857V3.42857ZM3.42857 10.2857H10.2857V3.42857H3.42857V10.2857ZM5.14286 24.5714C5.14286 24 5.64286 23.4286 6.28571 23.4286H7.42857C8 23.4286 8.57143 24 8.57143 24.5714V25.7143C8.57143 26.3571 8 26.8571 7.42857 26.8571H6.28571C5.64286 26.8571 5.14286 26.3571 5.14286 25.7143V24.5714ZM0 21.7143C0 19.8571 1.5 18.2857 3.42857 18.2857H10.2857C12.1429 18.2857 13.7143 19.8571 13.7143 21.7143V28.5714C13.7143 30.5 12.1429 32 10.2857 32H3.42857C1.5 32 0 30.5 0 28.5714V21.7143ZM3.42857 28.5714H10.2857V21.7143H3.42857V28.5714ZM25.7143 5.14286C26.2857 5.14286 26.8571 5.71429 26.8571 6.28571V7.42857C26.8571 8.07143 26.2857 8.57143 25.7143 8.57143H24.5714C23.9286 8.57143 23.4286 8.07143 23.4286 7.42857V6.28571C23.4286 5.71429 23.9286 5.14286 24.5714 5.14286H25.7143ZM28.5714 0C30.4286 0 32 1.57143 32 3.42857V10.2857C32 12.2143 30.4286 13.7143 28.5714 13.7143H21.7143C19.7857 13.7143 18.2857 12.2143 18.2857 10.2857V3.42857C18.2857 1.57143 19.7857 0 21.7143 0H28.5714ZM28.5714 3.42857H21.7143V10.2857H28.5714V3.42857ZM27.4286 32H25.1429V29.7143H27.4286V32ZM29.7143 29.7143H32V32H29.7143V29.7143ZM32 27.4286H25.1429V25.1429H22.8571V32H18.2857V18.2857H25.1429V20.5714H29.7143V18.2857H32V27.4286Z" fill="white"/>
</svg>
