<svg width="14" height="15" viewBox="0 0 14 15" fill="none" xmlns="http://www.w3.org/2000/svg">
<path d="M6.64453 10.1398C6.34375 10.4406 5.87891 10.4406 5.57812 10.1398L3.82812 8.38977C3.52734 8.08899 3.52734 7.62415 3.82812 7.32336C4.12891 7.02258 4.59375 7.02258 4.89453 7.32336L6.125 8.52649L9.07812 5.57336C9.37891 5.27258 9.84375 5.27258 10.1445 5.57336C10.4453 5.87415 10.4453 6.33899 10.1445 6.63977L6.64453 10.1398ZM14 7.8429C14 11.7257 10.8555 14.8429 7 14.8429C3.11719 14.8429 0 11.7257 0 7.8429C0 3.98743 3.11719 0.842896 7 0.842896C10.8555 0.842896 14 3.98743 14 7.8429ZM7 2.1554C3.85547 2.1554 1.3125 4.72571 1.3125 7.8429C1.3125 10.9874 3.85547 13.5304 7 13.5304C10.1172 13.5304 12.6875 10.9874 12.6875 7.8429C12.6875 4.72571 10.1172 2.1554 7 2.1554Z" fill="black"/>
</svg>
