<svg width="23" height="25" viewBox="0 0 23 25" fill="none" xmlns="http://www.w3.org/2000/svg">
<path d="M1.32812 10.3125L10.5156 0.6875C10.7891 0.414062 11.1172 0.304688 11.5 0.304688C11.8281 0.304688 12.1562 0.414062 12.4297 0.6875L21.6172 10.3125C22.1094 10.8594 22.1094 11.6797 21.5625 12.1719C21.0703 12.6641 20.1953 12.6641 19.7031 12.1172L12.8125 4.84375V23.4375C12.8125 24.2031 12.2109 24.75 11.5 24.75C10.8438 24.75 10.1875 24.2031 10.1875 23.4375V4.84375L3.24219 12.1172C2.75 12.6641 1.875 12.6641 1.38281 12.1719C0.835938 11.6797 0.835938 10.8047 1.32812 10.3125Z" fill="black"/>
</svg>
