<svg width="31" height="33" viewBox="0 0 31 33" fill="none" xmlns="http://www.w3.org/2000/svg">
<g filter="url(#filter0_d_1_4)">
<path d="M5.32812 12.3125L14.5156 2.6875C14.7891 2.41406 15.1172 2.30469 15.5 2.30469C15.8281 2.30469 16.1562 2.41406 16.4297 2.6875L25.6172 12.3125C26.1094 12.8594 26.1094 13.6797 25.5625 14.1719C25.0703 14.6641 24.1953 14.6641 23.7031 14.1172L16.8125 6.84375V25.4375C16.8125 26.2031 16.2109 26.75 15.5 26.75C14.8438 26.75 14.1875 26.2031 14.1875 25.4375V6.84375L7.24219 14.1172C6.75 14.6641 5.875 14.6641 5.38281 14.1719C4.83594 13.6797 4.83594 12.8047 5.32812 12.3125Z" fill="white"/>
</g>
<defs>
<filter id="filter0_d_1_4" x="0.835938" y="0.304688" width="29.2734" height="32.4453" filterUnits="userSpaceOnUse" color-interpolation-filters="sRGB">
<feFlood flood-opacity="0" result="BackgroundImageFix"/>
<feColorMatrix in="SourceAlpha" type="matrix" values="0 0 0 0 0 0 0 0 0 0 0 0 0 0 0 0 0 0 127 0" result="hardAlpha"/>
<feOffset dy="2"/>
<feGaussianBlur stdDeviation="2"/>
<feComposite in2="hardAlpha" operator="out"/>
<feColorMatrix type="matrix" values="0 0 0 0 0 0 0 0 0 0 0 0 0 0 0 0 0 0 0.25 0"/>
<feBlend mode="normal" in2="BackgroundImageFix" result="effect1_dropShadow_1_4"/>
<feBlend mode="normal" in="SourceGraphic" in2="effect1_dropShadow_1_4" result="shape"/>
</filter>
</defs>
</svg>
