<svg width="16" height="17" viewBox="0 0 16 17" fill="none" xmlns="http://www.w3.org/2000/svg">
<path d="M8.85478 1.06202L10.8249 5.21469L15.1593 5.87038C15.523 5.93283 15.8261 6.18261 15.9473 6.55729C16.0686 6.90074 15.9776 7.30664 15.7048 7.55643L12.5526 10.7724L13.3103 15.331C13.371 15.7057 13.2194 16.0803 12.9163 16.2989C12.6132 16.5487 12.2192 16.5487 11.8858 16.3926L8.0061 14.2382L4.09612 16.3926C3.79302 16.5487 3.39899 16.5487 3.09589 16.2989C2.79279 16.0803 2.64124 15.7057 2.70186 15.331L3.06558 13.0517C3.23581 11.985 3.93222 11.0759 4.91785 10.6338L8.85478 8.86783L4.67036 9.94824C3.65871 10.2094 2.58456 9.91059 1.85318 9.16442L0.277067 7.55643C0.0345878 7.30664 -0.0563421 6.90074 0.0345877 6.55729C0.155827 6.18261 0.458927 5.93283 0.822646 5.87038L5.18728 5.21469L7.12712 1.06202C7.27867 0.718562 7.61208 0.5 8.0061 0.5C8.36982 0.5 8.70323 0.718562 8.85478 1.06202Z" fill="black"/>
</svg>
