<svg width="17" height="13" viewBox="0 0 17 13" fill="none" xmlns="http://www.w3.org/2000/svg">
<path d="M15.6562 1.875C16.2578 1.875 16.75 2.36719 16.75 2.96875C16.75 3.59766 16.2578 4.0625 15.6562 4.0625C15.6289 4.0625 15.6289 4.0625 15.6289 4.0625L14.2344 11.6641C14.1797 12.0742 13.7969 12.375 13.3867 12.375H4.33594C3.92578 12.375 3.54297 12.0742 3.46094 11.6641L2.06641 4.0625C1.46484 4.0625 0.972656 3.59766 0.972656 2.96875C0.972656 2.36719 1.46484 1.875 2.06641 1.875C2.66797 1.875 3.16016 2.36719 3.16016 2.96875C3.16016 3.21484 3.07812 3.43359 2.94141 3.625L5.40234 5.59375C5.56641 5.73047 5.75781 5.78516 5.94922 5.78516C6.25 5.78516 6.57812 5.59375 6.71484 5.29297L8.27344 2.14844C7.97266 1.95703 7.75391 1.62891 7.75391 1.21875C7.75391 0.617188 8.24609 0.125 8.875 0.125C9.47656 0.125 9.94141 0.617188 9.94141 1.21875C9.94141 1.62891 9.75 1.95703 9.42188 2.14844L11.0078 5.29297C11.1445 5.59375 11.4727 5.78516 11.7734 5.78516C11.9648 5.78516 12.1562 5.73047 12.3203 5.59375L14.7812 3.625C14.6445 3.43359 14.5625 3.21484 14.5625 2.96875C14.5625 2.36719 15.0273 1.875 15.6562 1.875ZM13.0039 11.0625L13.9336 5.97656L13.1406 6.60547C12.7578 6.93359 12.293 7.09766 11.7734 7.09766C10.9531 7.09766 10.2148 6.63281 9.83203 5.89453L8.875 3.95312L7.89062 5.89453C7.53516 6.63281 6.76953 7.09766 5.94922 7.09766C5.45703 7.09766 4.96484 6.93359 4.58203 6.60547L3.78906 5.97656L4.71875 11.0625H13.0039Z" fill="white"/>
</svg>
