<svg width="14" height="13" viewBox="0 0 14 13" fill="none" xmlns="http://www.w3.org/2000/svg">
<path d="M7 0C3.412 0 0.5 2.912 0.5 6.5C0.5 10.088 3.412 13 7 13C10.588 13 13.5 10.088 13.5 6.5C13.5 2.912 10.588 0 7 0ZM3.7955 10.582C4.075 9.997 5.778 9.425 7 9.425C8.222 9.425 9.9315 9.997 10.2045 10.582C9.3205 11.284 8.209 11.7 7 11.7C5.791 11.7 4.6795 11.284 3.7955 10.582ZM11.134 9.6395C10.2045 8.5085 7.949 8.125 7 8.125C6.051 8.125 3.7955 8.5085 2.866 9.6395C2.203 8.7685 1.8 7.683 1.8 6.5C1.8 3.6335 4.1335 1.3 7 1.3C9.8665 1.3 12.2 3.6335 12.2 6.5C12.2 7.683 11.797 8.7685 11.134 9.6395ZM7 2.6C5.739 2.6 4.725 3.614 4.725 4.875C4.725 6.136 5.739 7.15 7 7.15C8.261 7.15 9.275 6.136 9.275 4.875C9.275 3.614 8.261 2.6 7 2.6ZM7 5.85C6.4605 5.85 6.025 5.4145 6.025 4.875C6.025 4.3355 6.4605 3.9 7 3.9C7.5395 3.9 7.975 4.3355 7.975 4.875C7.975 5.4145 7.5395 5.85 7 5.85Z" fill="white"/>
</svg>
