<svg width="581" height="586" viewBox="0 0 581 586" fill="none" xmlns="http://www.w3.org/2000/svg">
<path d="M350.512 442.974L326.507 444.752L341.621 465.2L350.512 442.974Z" stroke="#00FFFF" stroke-width="1.77812"/>
<path d="M68.9856 147.476L315.215 2L514.786 153.235L547.842 178.285C548.583 178.846 549.168 179.588 549.542 180.439L578.341 246.019C578.771 246.998 578.904 248.081 578.723 249.135L560.983 352.611L443.236 497.451C442.893 497.873 442.489 498.241 442.038 498.543L315.215 583.445L161.101 498.443C160.673 498.207 160.278 497.914 159.928 497.573L14.9351 356.282L2 226.868L68.9856 147.476Z" fill="white" fill-opacity="0.05"/>
<path d="M315.215 2L68.9856 147.476M315.215 2V30.4527M315.215 2L514.786 153.235M68.9856 147.476L2 226.868M68.9856 147.476L130.428 236.047M2 226.868L14.9351 356.282M2 226.868L30.6421 348.022M14.9351 356.282L159.928 497.573C160.278 497.914 160.672 498.207 161.101 498.443L315.215 583.445M14.9351 356.282L30.6421 348.022M315.215 583.445L442.038 498.543C442.489 498.241 442.893 497.873 443.236 497.451L560.983 352.611M315.215 583.445L189.098 415.482M315.215 583.445L449.186 409.058M560.983 352.611L578.723 249.135C578.904 248.081 578.771 246.998 578.341 246.019L549.542 180.439C549.168 179.588 548.583 178.846 547.842 178.285L514.786 153.235M560.983 352.611L477.829 241.554M560.983 352.611L449.186 409.058M315.215 30.4527L477.829 241.554M315.215 30.4527L322.607 301.213M315.215 30.4527L130.428 236.047M477.829 241.554L514.786 153.235M477.829 241.554L322.607 301.213M449.186 409.058L189.098 415.482M449.186 409.058L322.607 301.213M189.098 415.482L30.6421 348.022M189.098 415.482L322.607 301.213M30.6421 348.022L130.428 236.047M322.607 301.213L130.428 236.047" stroke="#6CFF34" stroke-width="3.55624" stroke-linejoin="round"/>
<path d="M368.293 253.604L369.626 262.05L379.406 259.383L381.184 250.048L366.959 253.159M341.176 261.161L344.288 270.496L358.513 267.384L356.735 257.605L341.176 261.161Z" stroke="#6CFF34" stroke-width="1.77812"/>
<path d="M518.988 167.365L542.549 186.48L567.442 247.825L554.995 327.396L533.213 301.613H549.661L557.663 249.603" stroke="#6CFF34" stroke-width="1.77812"/>
<path d="M549.661 259.383L532.324 293.167H543.438L549.661 259.383Z" stroke="#6CFF34" stroke-width="1.77812"/>
<path d="M524.323 288.722L487.871 241.602L540.77 257.16L524.323 288.722Z" stroke="#FFE500" stroke-width="1.77812"/>
<path d="M508.32 259.383L511.431 254.493L530.546 259.383L522.545 275.831L508.32 259.383Z" stroke="#6CFF34" stroke-width="1.77812"/>
<path d="M519.433 264.717V261.606L522.1 264.717H519.433Z" stroke="#00FFFF" stroke-width="1.77812"/>
<path d="M331.841 245.602L322.062 53.5655L342.955 84.2381M331.841 284.277L394.076 261.161L384.74 239.824L331.841 256.271V284.277Z" stroke="#FFE500" stroke-width="1.77812"/>
<path d="M330.508 82.4599L363.403 130.914L373.627 123.801L350.512 93.5732" stroke="#FFE500" stroke-width="1.77812"/>
<path d="M336.731 155.363L333.175 108.243C341.917 121.282 359.758 147.717 361.18 149.139C362.603 150.562 345.474 153.881 336.731 155.363Z" stroke="#6CFF34" stroke-width="1.77812"/>
<path d="M368.293 142.916L383.851 134.47L457.643 237.156L430.527 246.492L416.746 228.71L430.527 222.487L386.518 156.252L338.954 168.254" stroke="#6CFF34" stroke-width="1.77812"/>
<path d="M490.094 232.711L515.877 174.033L534.992 193.148L556.329 238.935L540.77 249.603L490.094 232.711Z" stroke="#00FFFF" stroke-width="1.77812"/>
<path d="M502.096 227.377L518.544 190.925L545.66 238.045L502.096 227.377Z" stroke="#6CFF34" stroke-width="1.77812"/>
<path d="M511.431 222.487L518.099 210.929L520.322 207.817L533.213 227.377L511.431 222.487Z" stroke="#FFC225" stroke-width="1.77812"/>
<path d="M328.73 38.0069L321.173 15.7804L339.398 38.0069L378.962 83.7935V58.8999L406.078 78.0146V128.691L328.73 38.0069Z" stroke="#00FFFF" stroke-width="1.77812"/>
<path d="M341.621 29.5609L369.626 59.7889" stroke="#6CFF34" stroke-width="1.77812"/>
<path d="M385.185 95.7958V72.6803L398.076 80.2373V106.02L385.185 95.7958Z" stroke="#6CFF34" stroke-width="1.77812"/>
<path d="M500.318 155.363L415.857 92.2396V110.465L487.871 158.03L457.199 193.592L474.091 215.374L500.318 155.363Z" stroke="#6CFF34" stroke-width="1.77812"/>
<path d="M482.092 178.034L470.535 196.26" stroke="#6CFF34" stroke-width="1.77812"/>
<path d="M465.2 158.919L415.857 125.135L412.746 139.36L450.975 180.701L465.2 158.919Z" stroke="#6CFF34" stroke-width="1.77812"/>
<path d="M449.642 166.921L425.193 141.582L455.865 159.808L449.642 166.921Z" stroke="#FFC225" stroke-width="1.77812"/>
<path d="M124.246 130.914L89.5724 152.251L128.691 211.374L301.613 32.228" stroke="#6CFF34" stroke-width="1.77812"/>
<path d="M136.248 124.69L158.03 111.354L162.92 129.136L107.354 157.141L132.247 184.257L201.149 108.687" stroke="#6CFF34" stroke-width="1.77812"/>
<path d="M176.7 102.019L303.836 17.5586L308.726 27.3382" stroke="#6CFF34" stroke-width="1.77812"/>
<path d="M166.032 99.3521L173.144 121.134L202.039 97.574L212.263 107.798" stroke="#00FFFF" stroke-width="1.77812"/>
<path d="M221.598 91.7951L262.939 57.1217M125.579 161.142L131.803 167.81L140.693 161.142L134.914 154.029L125.579 161.142Z" stroke="#FFC225" stroke-width="1.77812"/>
<path d="M174.478 206.039L152.251 230.488L305.614 282.054L302.947 184.702" stroke="#FFE500" stroke-width="1.77812"/>
<path d="M189.147 191.37L249.159 127.357L280.276 124.69L211.818 191.37" stroke="#6CFF34" stroke-width="1.77812"/>
<path d="M182.924 198.927L254.938 225.154L241.157 243.38L185.591 220.709" stroke="#00FFFF" stroke-width="1.77812"/>
<path d="M291.389 251.381L260.716 238.045L256.271 251.381L291.389 266.495V251.381Z" stroke="#6CFF34" stroke-width="1.77812"/>
<path d="M286.944 228.266L232.711 189.147L298.057 139.36L286.944 228.266Z" stroke="#6CFF34" stroke-width="1.77812"/>
<path d="M283.388 182.035L272.719 173.144L255.382 186.925L275.386 201.149L283.388 182.035Z" stroke="#FFC225" stroke-width="1.77812"/>
<path d="M278.498 166.476L288.722 157.586L286.944 173.144L278.498 166.476Z" stroke="#FFC225" stroke-width="1.77812"/>
<path d="M306.059 58.8999L264.717 110.91L289.166 97.574L303.836 127.357L306.059 58.8999Z" stroke="#00FFFF" stroke-width="1.77812"/>
<path d="M342.51 147.361V138.915L351.845 145.583L342.51 147.361Z" stroke="#FFC225" stroke-width="1.77812"/>
<path d="M345.622 234.045L340.287 179.367L382.518 170.921L412.301 214.93L345.622 234.045Z" stroke="#6CFF34" stroke-width="1.77812"/>
<path d="M353.623 220.709L363.847 182.479L395.854 208.706L353.623 220.709Z" stroke="#6CFF34" stroke-width="1.77812"/>
<path d="M368.293 206.928L365.181 198.927L373.627 196.704L380.295 204.706L368.293 206.928Z" stroke="#FFC225" stroke-width="1.77812"/>
<path d="M226.043 225.154L184.702 210.04L170.477 225.154L218.486 243.38" stroke="#6CFF34" stroke-width="1.77812"/>
<path d="M147.361 150.029L158.919 141.138" stroke="#6CFF34" stroke-width="1.77812"/>
<path d="M56.6772 342.065L132.692 252.715L280.276 306.503C250.048 334.36 188.347 390.075 183.368 390.075C178.39 390.075 95.3513 358.661 56.6772 342.065Z" stroke="#6CFF34" stroke-width="1.77812"/>
<path d="M175.811 306.503L183.368 296.279L227.821 318.061L190.481 343.399L175.811 306.503Z" stroke="#6CFF34" stroke-width="1.77812"/>
<path d="M193.592 329.174L189.592 312.282L209.596 318.061L193.592 329.174Z" stroke="#FFC225" stroke-width="1.77812"/>
<path d="M83.349 336.287L139.36 270.496C150.177 302.65 172.166 367.759 173.589 370.96C175.011 374.161 114.022 349.178 83.349 336.287Z" stroke="#00FFFF" stroke-width="1.77812"/>
<path d="M186.924 360.291C178.478 335.249 161.231 284.366 159.808 281.165L252.27 312.282L186.924 360.291Z" stroke="#00FFFF" stroke-width="1.77812"/>
<path d="M106.465 331.397L134.47 298.057L146.472 322.506L139.36 343.399L106.465 331.397Z" stroke="#6CFF34" stroke-width="1.77812"/>
<path d="M122.023 328.73L132.247 318.061L134.025 329.619L122.023 328.73Z" stroke="#FFC225" stroke-width="1.77812"/>
<path d="M146.472 349.178L150.473 333.175L162.031 360.291L146.472 349.178Z" stroke="#FFC225" stroke-width="1.77812"/>
<path d="M15.3359 230.044L68.235 164.253L76.6811 176.256L28.2273 232.711L63.7897 286.055L39.3405 317.172L15.3359 230.044Z" stroke="#6CFF34" stroke-width="1.77812"/>
<path d="M43.7858 293.612L31.7835 261.161L52.2319 283.832L43.7858 293.612Z" stroke="#FFC225" stroke-width="1.77812"/>
<path d="M39.7851 232.267L81.1264 186.924L72.6803 277.609L39.7851 232.267Z" stroke="#00FFFF" stroke-width="1.77812"/>
<path d="M111.799 236.267L87.3498 195.815L94.4622 236.267L82.4599 272.719L111.799 236.267Z" stroke="#6CFF34" stroke-width="1.77812"/>
<path d="M56.2327 242.046V224.265L68.235 211.374V244.269L56.2327 242.046Z" stroke="#FFC225" stroke-width="1.77812"/>
<path d="M234.045 391.408L322.062 318.061L408.745 387.852L404.744 400.299L238.935 404.3L234.045 391.408Z" stroke="#6CFF34" stroke-width="1.77812"/>
<path d="M332.286 336.287H314.505L285.166 365.626H360.291L332.286 336.287Z" stroke="#00FFFF" stroke-width="1.77812"/>
<path d="M309.615 357.18L315.394 346.066L338.509 357.18H309.615Z" stroke="#6CFF34" stroke-width="1.77812"/>
<path d="M378.961 374.961L266.495 377.183L322.062 388.297H394.52L378.961 374.961Z" stroke="#6CFF34" stroke-width="1.77812"/>
<path d="M249.159 394.075L259.383 384.296L300.28 394.075H249.159Z" stroke="#FFE500" stroke-width="1.77812"/>
<path d="M470.535 260.272L347.844 306.948L450.975 386.519L531.88 343.399L470.535 260.272Z" stroke="#6CFF34" stroke-width="1.77812"/>
<path d="M371.849 310.948L381.629 301.613L458.088 271.83L463.867 282.943L397.187 313.171L454.087 346.066L450.531 371.404L371.849 310.948Z" stroke="#FFE500" stroke-width="1.77812"/>
<path d="M427.415 321.173V309.17L460.755 297.168L453.198 329.174L427.415 321.173Z" stroke="#6CFF34" stroke-width="1.77812"/>
<path d="M470.535 275.831L514.543 339.843L462.089 366.959" stroke="#6CFF34" stroke-width="1.77812"/>
<path d="M463.867 352.734L470.979 297.168L494.539 331.841L463.867 352.734Z" stroke="#00FFFF" stroke-width="1.77812"/>
<path d="M475.424 329.619V320.728L481.648 329.619H475.424Z" stroke="#FFC225" stroke-width="1.77812"/>
<path d="M169.143 487.871L42.0077 365.626L166.476 419.858L169.143 487.871Z" stroke="#6CFF34" stroke-width="1.77812"/>
<path d="M154.474 424.304L93.1287 399.854L137.582 431.861L158.475 462.089L154.474 424.304Z" stroke="#00FFFF" stroke-width="1.77812"/>
<path d="M266.051 540.77L178.034 426.082L180.701 489.205L266.051 540.77Z" stroke="#6CFF34" stroke-width="1.77812"/>
<path d="M193.148 485.649L189.592 457.643L205.15 481.648L234.045 512.765L193.148 485.649Z" stroke="#00FFFF" stroke-width="1.77812"/>
<path d="M415.413 419.858L216.263 423.859L293.612 525.656H340.287L415.413 419.858Z" stroke="#6CFF34" stroke-width="1.77812"/>
<path d="M314.949 566.109L300.724 536.77H335.398L314.949 566.109Z" stroke="#FFE500" stroke-width="1.77812"/>
<path d="M378.072 434.083L247.381 437.639L323.84 458.977L317.616 515.432L378.072 434.083Z" stroke="#6CFF34" stroke-width="1.77812"/>
<path d="M300.28 514.099L259.827 451.864L310.059 469.201L300.28 514.099Z" stroke="#00FFFF" stroke-width="1.77812"/>
<path d="M281.165 469.201L292.723 471.424L295.39 490.983L281.165 469.201Z" stroke="#FFC225" stroke-width="1.77812"/>
<path d="M470.09 440.307L526.545 382.518L454.976 414.968L470.09 440.307Z" stroke="#6CFF34" stroke-width="1.77812"/>
<path d="M462.533 455.865L447.419 430.971L412.301 470.535L432.305 492.317L462.533 455.865Z" stroke="#00FFFF" stroke-width="1.77812"/>
<path d="M358.069 540.77L407.856 477.647L423.415 498.985L358.069 540.77Z" stroke="#6CFF34" stroke-width="1.77812"/>
<path d="M407.411 501.652V490.094L393.631 507.875L407.411 501.652Z" stroke="#FFC225" stroke-width="1.77812"/>
<path d="M423.859 469.201L447.419 442.974L455.865 456.31L438.529 463.867L432.305 480.314L423.859 469.201Z" stroke="#FFC225" stroke-width="1.77812"/>
<path d="M470.09 426.082L466.534 416.747L485.204 410.523L470.09 426.082Z" stroke="#FFC225" stroke-width="1.77812"/>
</svg>
